<svg width="228" height="228" viewBox="0 0 228 228" fill="none" xmlns="http://www.w3.org/2000/svg">
<g clip-path="url(#clip0_132_801)">
<path d="M113.893 41.1089L113.988 51.5848H117.608C117.608 51.5848 121.12 34.2254 136.576 22.5957C136.576 22.5957 137.932 21.7021 136.757 19.0291C136.757 19.0291 135.848 16.9225 132.629 17.5251C132.629 17.5251 118.515 25.7452 95.732 17.5251C95.732 17.5251 92.4343 16.6367 91.2729 19.0677C90.1117 21.4987 91.2729 22.5313 91.2729 22.5313C91.2729 22.5313 101.164 31.0166 106.653 42.6694C106.653 42.6694 109.08 47.189 110.142 51.5848H113.985L113.893 41.1089C113.893 41.1089 111.922 36.234 106.254 28.0629H121.564C121.564 28.0629 116.161 36.61 113.893 41.1089Z" fill="#203446"/>
<path d="M116.079 180.44H111.681C110.802 180.44 110.089 179.74 110.089 178.877V49.7822C110.089 48.9194 110.802 48.219 111.681 48.219H116.079C116.958 48.219 117.671 48.9194 117.671 49.7822V178.88C117.671 179.74 116.958 180.44 116.079 180.44Z" fill="#203446"/>
<path d="M72.4724 139.844L79.9461 132.369L77.3876 129.855C77.3876 129.855 62.4062 139.69 43.1073 137.177C43.1073 137.177 41.5056 136.868 40.4125 139.572C40.4125 139.572 39.5395 141.694 42.2475 143.501C42.2475 143.501 58.1438 147.494 68.3358 169.13C68.3358 169.13 70.0266 172.048 72.5983 171.136C75.1698 170.224 75.0912 168.688 75.0912 168.688C75.0912 168.688 74.2051 155.819 78.7114 143.762C78.7114 143.762 80.2475 138.879 82.6618 135.034L79.9461 132.367L72.4724 139.844C72.4724 139.844 70.3596 144.663 68.4826 154.374L57.6588 143.741C57.6614 143.741 67.6333 141.452 72.4724 139.844Z" fill="#203446"/>
<path d="M171.218 39.8058L174.33 42.8626C174.951 43.4729 174.951 44.4618 174.33 45.0722L81.4059 136.358C80.7846 136.968 79.778 136.968 79.1567 136.358L76.0451 133.302C75.4238 132.691 75.4238 131.702 76.0451 131.091L168.969 39.8058C169.59 39.1955 170.597 39.1955 171.218 39.8058Z" fill="#203446"/>
<path d="M72.3256 58.1104L79.9329 65.4523L82.4914 62.9389C82.4914 62.9389 72.4803 48.2216 75.0388 29.2629C75.0388 29.2629 75.3533 27.6895 72.6008 26.6156C72.6008 26.6156 70.4408 25.7581 68.6005 28.4182C68.6005 28.4182 64.5373 44.0343 42.5122 54.0467C42.5122 54.0467 39.5421 55.7077 40.4701 58.234C41.3981 60.7602 42.9631 60.683 42.9631 60.683C42.9631 60.683 56.0623 59.8126 68.3358 64.2393C68.3358 64.2393 73.306 65.7484 77.2198 68.1202L79.9329 65.4523L72.3256 58.1104C72.3256 58.1104 67.421 56.0348 57.5355 54.1909L68.3594 43.5578C68.3568 43.5578 70.6898 53.3539 72.3256 58.1104Z" fill="#203446"/>
<path d="M174.159 155.116L171.047 158.172C170.427 158.782 169.42 158.782 168.799 158.172L75.8747 66.8867C75.2534 66.2764 75.2534 65.2875 75.8747 64.6771L78.9863 61.6204C79.6075 61.01 80.6142 61.01 81.2355 61.6204L174.159 152.907C174.78 153.514 174.78 154.505 174.159 155.116Z" fill="#203446"/>
<path d="M55.1682 98.8141L65.8321 98.7213V95.165C65.8321 95.165 48.1612 91.7142 36.3228 76.5309C36.3228 76.5309 35.4132 75.1994 32.6922 76.3532C32.6922 76.3532 30.5479 77.2467 31.1613 80.4091C31.1613 80.4091 39.5288 94.274 31.1613 116.655C31.1613 116.655 30.2569 119.895 32.7315 121.036C35.2061 122.176 36.2573 121.036 36.2573 121.036C36.2573 121.036 44.8949 111.319 56.7568 105.927C56.7568 105.927 61.3574 103.542 65.8321 102.499V98.724L55.1682 98.8141C55.1682 98.8141 50.2059 100.751 41.8881 106.318V91.279C41.8881 91.2816 50.5886 96.5891 55.1682 98.8141Z" fill="#203446"/>
<path d="M197 96.6689V100.99C197 101.853 196.287 102.553 195.409 102.553H63.9945C63.1163 102.553 62.4033 101.853 62.4033 100.99V96.6689C62.4033 95.8063 63.1163 95.1057 63.9945 95.1057H195.409C196.287 95.1057 197 95.8063 197 96.6689Z" fill="#203446"/>
</g>
<path d="M31.6068 188.187C31.6772 188.03 31.7946 187.906 31.9547 187.818C32.1148 187.73 32.5097 187.686 33.1351 187.686C33.2782 187.686 33.4873 187.681 33.7648 187.673C34.0423 187.665 34.3412 187.656 34.6635 187.646C34.9858 187.637 35.3082 187.625 35.6305 187.606C35.9528 187.589 36.2303 187.57 36.463 187.553C36.4993 187.642 36.5164 187.73 36.5164 187.818C36.5164 187.906 36.5164 187.975 36.5164 188.03C36.5164 188.311 36.4182 188.479 36.2218 188.531C35.8632 188.584 35.5814 188.636 35.3765 188.689C35.1716 188.741 35.0136 188.808 34.9069 188.886C34.8001 188.966 34.7276 189.058 34.6913 189.163C34.655 189.268 34.6379 189.392 34.6379 189.532C34.6379 189.568 34.6507 189.901 34.6785 190.535C34.7062 191.169 34.7446 191.952 34.8001 192.883C34.8535 193.815 34.9069 194.826 34.9602 195.917C35.0136 197.009 35.067 198.041 35.1203 199.017C35.1737 199.992 35.2185 200.842 35.2548 201.562C35.2911 202.284 35.3167 202.722 35.3359 202.882C35.3359 203.058 35.3573 203.203 35.4021 203.316C35.4469 203.432 35.528 203.532 35.6433 203.621C35.7586 203.709 35.9251 203.784 36.1407 203.845C36.3563 203.906 36.6316 203.965 36.9732 204.017C37.1695 204.053 37.2677 204.219 37.2677 204.519C37.2677 204.642 37.2507 204.791 37.2144 204.968C36.5889 204.932 36.0211 204.903 35.511 204.875C35.0008 204.848 34.4244 204.836 33.7798 204.836C33.1885 204.836 32.5588 204.848 31.8885 204.875C31.2183 204.903 30.659 204.932 30.2107 204.968C30.1744 204.791 30.1574 204.642 30.1574 204.519C30.1574 204.326 30.1894 204.193 30.2513 204.122C30.3132 204.053 30.373 204.017 30.4263 204.017C31.1606 203.895 31.6345 203.749 31.848 203.583C32.0636 203.415 32.1703 203.157 32.1703 202.804C32.1703 202.752 32.1575 202.471 32.1297 201.961C32.102 201.451 32.0764 200.817 32.0486 200.062C32.0209 199.306 31.9867 198.488 31.9419 197.609C31.8971 196.73 31.8522 195.903 31.8074 195.128C31.7626 194.354 31.7263 193.687 31.7007 193.125C31.6729 192.562 31.6516 192.218 31.6345 192.096L26.1336 204.678C26.044 204.836 25.9671 204.955 25.9052 205.035C25.8433 205.115 25.7579 205.154 25.6512 205.154C25.6149 205.154 25.5616 205.154 25.4911 205.154C25.4185 205.154 25.3652 205.146 25.331 205.127L19.1065 190.462C19.0894 190.69 19.0659 191.152 19.0403 191.847C19.0126 192.541 18.9784 193.336 18.9336 194.235C18.8888 195.131 18.8439 196.077 18.7991 197.069C18.7543 198.064 18.7137 198.981 18.6774 199.827C18.6412 200.67 18.6113 201.38 18.5835 201.95C18.5558 202.521 18.543 202.834 18.543 202.886C18.543 203.044 18.56 203.18 18.5963 203.295C18.6326 203.411 18.7031 203.511 18.8119 203.6C18.9187 203.688 19.0809 203.763 19.2943 203.824C19.5099 203.885 19.8045 203.952 20.1802 204.021C20.3766 204.057 20.4748 204.223 20.4748 204.523C20.4748 204.575 20.4705 204.642 20.462 204.72C20.4534 204.8 20.4385 204.882 20.4214 204.97C19.939 204.934 19.4907 204.905 19.0787 204.877C18.6668 204.85 18.2548 204.838 17.8449 204.838C17.4863 204.838 17.0402 204.85 16.5023 204.877C15.9644 204.905 15.4819 204.934 15.0529 204.97C15.0166 204.898 14.9995 204.821 14.9995 204.733C14.9995 204.645 14.9995 204.575 14.9995 204.521C14.9995 204.328 15.0273 204.2 15.0806 204.139C15.134 204.078 15.2066 204.038 15.2962 204.019C15.8512 203.898 16.2525 203.755 16.5044 203.597C16.7542 203.44 16.8972 203.201 16.9335 202.886C16.9335 202.746 16.9505 202.32 16.9868 201.606C17.0231 200.895 17.0679 200.049 17.1213 199.073C17.1747 198.098 17.228 197.061 17.2814 195.962C17.3348 194.862 17.3839 193.842 17.4287 192.902C17.4735 191.962 17.5098 191.175 17.5354 190.541C17.5632 189.908 17.576 189.574 17.576 189.538C17.576 189.24 17.4778 189.024 17.2814 188.892C17.085 188.76 16.656 188.642 15.9942 188.535C15.7979 188.519 15.6997 188.351 15.6997 188.034C15.6997 187.981 15.6997 187.91 15.6997 187.822C15.6997 187.734 15.7167 187.646 15.753 187.558C15.9857 187.574 16.308 187.593 16.72 187.61C17.132 187.627 17.5525 187.642 17.9816 187.65C18.4106 187.658 18.8141 187.667 19.1897 187.677C19.5654 187.686 19.8344 187.69 19.9945 187.69C20.3168 187.69 20.5666 187.702 20.7459 187.73C20.9252 187.757 21.0682 187.786 21.1749 187.822C21.2817 187.858 21.3585 187.91 21.4033 187.979C21.4482 188.051 21.4887 188.12 21.525 188.191L26.5157 200.034L31.6068 188.187Z" fill="#203446"/>
<path d="M49.478 199.027H43.8426L42.4466 202.693C42.3932 202.781 42.3569 202.878 42.3398 202.983C42.3227 203.088 42.3121 203.167 42.3121 203.22C42.3121 203.413 42.406 203.572 42.5938 203.694C42.7817 203.818 43.1617 203.923 43.7337 204.011C43.9835 204.047 44.1094 204.212 44.1094 204.512C44.1094 204.636 44.0923 204.785 44.0561 204.961C43.5736 204.926 43.0635 204.896 42.5255 204.869C41.9897 204.842 41.4604 204.829 40.9417 204.829C40.583 204.829 40.2073 204.838 39.8146 204.857C39.4218 204.873 38.9821 204.909 38.4997 204.961C38.4634 204.89 38.4463 204.812 38.4463 204.724C38.4463 204.636 38.4463 204.567 38.4463 204.512C38.4463 204.179 38.5616 204.003 38.7942 203.986C39.3492 203.881 39.7463 203.765 39.9875 203.644C40.2287 203.522 40.4208 203.31 40.5638 203.01L47.0317 187.816C47.1747 187.518 47.3903 187.367 47.6764 187.367C47.766 187.367 47.8557 187.371 47.9453 187.379C48.035 187.388 48.1332 187.402 48.2399 187.419L54.7078 203.088C54.8145 203.352 55.0216 203.549 55.3247 203.681C55.6278 203.814 55.9587 203.906 56.3173 203.958C56.5863 204.011 56.7207 204.187 56.7207 204.485C56.7207 204.626 56.7037 204.785 56.6674 204.959C56.0953 204.924 55.5318 204.894 54.9768 204.867C54.4218 204.84 53.903 204.827 53.4206 204.827C53.1709 204.827 52.8656 204.831 52.5091 204.84C52.1505 204.848 51.7855 204.861 51.4098 204.88C51.0341 204.896 50.6627 204.911 50.2955 204.92C49.9284 204.928 49.621 204.94 49.3691 204.959C49.3328 204.888 49.3157 204.81 49.3157 204.722C49.3157 204.634 49.3157 204.565 49.3157 204.51C49.3157 204.353 49.3478 204.233 49.4097 204.154C49.4716 204.074 49.5399 204.026 49.6103 204.009C50.0757 203.921 50.4193 203.82 50.6435 203.705C50.8676 203.591 50.9786 203.419 50.9786 203.19C50.9786 203.086 50.9509 202.953 50.8975 202.794L49.478 199.027ZM48.9678 197.71L46.6859 191.775L44.3506 197.71H48.9678Z" fill="#203446"/>
<path d="M59.1372 189.664C59.1372 189.488 59.1201 189.343 59.0838 189.23C59.0475 189.117 58.9771 189.014 58.8682 188.926C58.7615 188.838 58.595 188.764 58.3709 188.701C58.1467 188.64 57.8479 188.582 57.4722 188.529C57.2929 188.477 57.2032 188.328 57.2032 188.08C57.2032 188.028 57.2032 187.948 57.2032 187.843C57.2032 187.738 57.2203 187.642 57.2566 187.553C57.8287 187.589 58.4413 187.618 59.0945 187.646C59.7477 187.673 60.3326 187.686 60.8513 187.686C61.3529 187.686 61.925 187.673 62.5697 187.646C63.2143 187.618 63.8227 187.589 64.3947 187.553C64.4118 187.642 64.4268 187.738 64.4353 187.843C64.4438 187.948 64.4481 188.028 64.4481 188.08C64.4481 188.326 64.3585 188.477 64.1792 188.529C63.8035 188.582 63.5046 188.638 63.2805 188.701C63.0563 188.762 62.8877 188.838 62.7703 188.926C62.6529 189.014 62.5825 189.115 62.5547 189.23C62.527 189.345 62.5142 189.49 62.5142 189.664V201.086C62.5142 202.317 62.4288 203.367 62.2601 204.237C62.0894 205.108 61.7991 205.895 61.3871 206.598C60.9751 207.301 60.4073 207.964 59.6836 208.589C58.96 209.213 58.0507 209.895 56.9599 210.633C56.8169 210.509 56.6952 210.396 56.597 210.291C56.4988 210.186 56.4497 210.079 56.4497 209.974C56.4497 209.834 56.4945 209.718 56.5842 209.632C57.0858 209.158 57.4957 208.701 57.818 208.26C58.1403 207.819 58.3986 207.368 58.5971 206.902C58.7935 206.437 58.9323 205.943 59.0134 205.425C59.0945 204.907 59.1351 204.34 59.1351 203.723V189.664H59.1372Z" fill="#203446"/>
<path d="M72.1518 189.005V195.364H75.9343C76.2737 195.364 76.5064 195.227 76.6323 194.954C76.7583 194.682 76.865 194.239 76.9547 193.622C76.9717 193.481 77.0251 193.389 77.1148 193.345C77.2044 193.301 77.3197 193.28 77.4627 193.28C77.5161 193.28 77.6014 193.284 77.7167 193.292C77.832 193.301 77.9174 193.316 77.9707 193.332C77.9344 193.737 77.9046 194.207 77.8768 194.745C77.8491 195.282 77.8362 195.733 77.8362 196.102C77.8362 196.419 77.8448 196.793 77.864 197.223C77.8811 197.653 77.9174 198.142 77.9707 198.687C77.9174 198.723 77.832 198.744 77.7167 198.752C77.5993 198.761 77.5161 198.765 77.4627 198.765C77.1404 198.765 76.9696 198.643 76.9525 198.396C76.8458 197.728 76.7241 197.275 76.5896 197.038C76.4552 196.801 76.2353 196.681 75.9322 196.681H72.1497V202.59C72.1497 202.96 72.3824 203.205 72.8477 203.329C73.313 203.453 74.1007 203.514 75.2086 203.514H76.3356C76.8714 203.514 77.3239 203.444 77.6911 203.302C78.0582 203.161 78.3848 202.964 78.6709 202.708C78.9569 202.454 79.2067 202.154 79.4223 201.812C79.6378 201.47 79.8513 201.086 80.0669 200.664C80.1203 200.542 80.2462 200.479 80.4426 200.479C80.5322 200.479 80.639 200.507 80.7649 200.559C80.8887 200.612 81.0147 200.664 81.1406 200.716C81.1043 200.857 81.0638 200.989 81.0189 201.113C80.9741 201.237 80.9335 201.359 80.8973 201.482C80.8076 201.675 80.7372 201.887 80.6817 202.116C80.6283 202.345 80.5749 202.529 80.5216 202.67C80.4853 202.846 80.4447 203.044 80.3999 203.264C80.3551 203.484 80.3102 203.694 80.2654 203.898C80.2206 204.099 80.1758 204.28 80.1309 204.439C80.0861 204.596 80.0541 204.703 80.037 204.756C79.9644 204.896 79.8214 204.968 79.608 204.968C79.4649 204.968 79.26 204.959 78.9911 204.94C78.7221 204.924 78.4318 204.909 78.118 204.901C77.8042 204.892 77.4883 204.878 77.166 204.861C76.8437 204.844 76.5662 204.833 76.3335 204.833H70.2414C69.7226 204.833 69.1271 204.846 68.4568 204.873C67.7866 204.901 67.1825 204.93 66.6446 204.966C66.6083 204.894 66.5912 204.804 66.5912 204.689C66.5912 204.575 66.5912 204.491 66.5912 204.439C66.5912 204.175 66.6808 204.034 66.8601 204.017C67.5389 203.895 68.0278 203.763 68.3223 203.623C68.6169 203.482 68.7642 203.237 68.7642 202.884V189.669C68.7642 189.492 68.7365 189.348 68.6831 189.234C68.6297 189.121 68.5273 189.022 68.3736 188.945C68.222 188.865 68.0256 188.796 67.7823 188.733C67.5411 188.672 67.2316 188.605 66.8559 188.535C66.6766 188.483 66.5869 188.326 66.5869 188.061C66.5869 187.973 66.5869 187.889 66.5869 187.812C66.5869 187.732 66.604 187.65 66.6403 187.562C67.4087 187.614 68.0897 187.65 68.6788 187.667C69.2701 187.684 69.7781 187.694 70.2093 187.694H75.7102C76.5149 187.694 77.2087 187.667 77.7893 187.614C78.3699 187.562 78.7691 187.535 78.9825 187.535C79.1789 187.535 79.3219 187.614 79.4116 187.772C79.4649 187.912 79.5098 188.172 79.5461 188.55C79.5823 188.928 79.6442 189.32 79.7339 189.723C79.7873 190.023 79.8492 190.313 79.9217 190.594C79.9922 190.875 80.1011 191.219 80.2441 191.622C80.1544 191.658 80.0562 191.694 79.9495 191.727C79.8428 191.763 79.7339 191.78 79.6272 191.78C79.4308 191.78 79.2878 191.7 79.1981 191.542C78.9825 191.085 78.7733 190.695 78.5684 190.369C78.3635 190.044 78.1308 189.78 77.8704 189.578C77.61 189.377 77.3069 189.232 76.9589 189.144C76.611 189.056 76.1947 189.012 75.7102 189.012H72.1518V189.005Z" fill="#203446"/>
<path d="M94.3708 191.96C94.2107 192.012 94.04 192.04 93.8607 192.04C93.6109 192.04 93.4316 191.991 93.3249 191.895C93.2182 191.798 93.1456 191.698 93.1093 191.591C92.6973 190.588 92.1658 189.868 91.5126 189.427C90.8594 188.989 89.9864 188.768 88.8956 188.768C88.0375 188.768 87.3074 188.976 86.7076 189.387C86.1078 189.801 85.8089 190.43 85.8089 191.274C85.8089 191.924 86.0373 192.447 86.4942 192.843C86.951 193.24 87.523 193.586 88.2125 193.886C88.902 194.186 89.6427 194.476 90.4389 194.757C91.2351 195.038 91.9779 195.391 92.6653 195.813C93.3548 196.234 93.9268 196.772 94.3836 197.422C94.8404 198.073 95.0689 198.908 95.0689 199.927C95.0689 200.597 94.9514 201.247 94.7209 201.879C94.4882 202.513 94.1211 203.071 93.6216 203.553C93.12 204.038 92.486 204.424 91.7154 204.714C90.9469 205.003 90.0248 205.148 88.9511 205.148C87.7706 205.148 86.714 205.022 85.7855 204.773C84.8548 204.523 84.0863 204.252 83.478 203.958C83.4246 203.205 83.3392 202.462 83.2239 201.732C83.1065 201.002 82.9785 200.295 82.8354 199.609C83.0148 199.539 83.2197 199.504 83.4523 199.504C83.6679 199.504 83.828 199.543 83.9348 199.623C84.0415 199.703 84.1311 199.839 84.2037 200.032C84.4364 200.702 84.6947 201.277 84.9829 201.759C85.2689 202.244 85.5998 202.639 85.9754 202.947C86.3511 203.255 86.7845 203.48 87.2776 203.621C87.7685 203.761 88.3384 203.83 88.981 203.83C89.536 203.83 90.0098 203.755 90.4026 203.606C90.7954 203.457 91.1177 203.258 91.3696 203.012C91.6193 202.767 91.8072 202.475 91.9331 202.139C92.0591 201.806 92.121 201.461 92.121 201.109C92.121 200.351 91.9011 199.758 91.4635 199.325C91.0259 198.893 90.4795 198.532 89.8263 198.242C89.1731 197.953 88.4665 197.678 87.7066 197.424C86.9467 197.168 86.2401 196.843 85.5869 196.446C84.9338 196.05 84.3873 195.54 83.9497 194.914C83.5121 194.289 83.2923 193.448 83.2923 192.392C83.2923 191.687 83.4225 191.03 83.6807 190.424C83.939 189.818 84.3211 189.289 84.8206 188.84C85.3223 188.391 85.9242 188.034 86.6329 187.77C87.3395 187.505 88.1485 187.373 89.0621 187.373C89.8135 187.373 90.5691 187.453 91.329 187.61C92.0889 187.767 92.9535 188.032 93.9183 188.401C93.9546 188.928 94.0122 189.522 94.0933 190.183C94.168 190.837 94.262 191.431 94.3708 191.96Z" fill="#203446"/>
<path d="M106.525 189.006V202.88C106.525 203.056 106.538 203.201 106.565 203.314C106.593 203.43 106.659 203.53 106.766 203.619C106.873 203.707 107.024 203.782 107.223 203.843C107.419 203.904 107.697 203.963 108.055 204.015C108.324 204.068 108.459 204.217 108.459 204.464C108.459 204.517 108.455 204.596 108.446 204.701C108.438 204.806 108.423 204.894 108.406 204.966C107.833 204.93 107.221 204.901 106.568 204.873C105.914 204.846 105.338 204.834 104.836 204.834C104.318 204.834 103.741 204.846 103.105 204.873C102.469 204.901 101.867 204.93 101.293 204.966C101.257 204.894 101.235 204.808 101.227 204.701C101.218 204.596 101.214 204.517 101.214 204.464C101.214 204.34 101.235 204.24 101.28 204.16C101.325 204.08 101.445 204.024 101.643 203.988C102.305 203.9 102.721 203.782 102.892 203.631C103.063 203.482 103.146 203.23 103.146 202.88V189.006H100.785C100.283 189.006 99.8585 189.054 99.5106 189.15C99.1627 189.247 98.8574 189.396 98.5991 189.599C98.3387 189.801 98.106 190.065 97.9011 190.391C97.6962 190.716 97.4848 191.108 97.2714 191.564C97.1988 191.721 97.0665 191.801 96.8679 191.801C96.7612 191.801 96.6353 191.78 96.4923 191.736C96.3492 191.692 96.2425 191.652 96.1699 191.616C96.2937 191.194 96.4026 190.821 96.4923 190.495C96.5819 190.17 96.6523 189.849 96.7078 189.532C96.7783 189.127 96.8317 188.766 96.8679 188.452C96.9042 188.135 96.9491 187.906 97.0024 187.765C97.0729 187.608 97.218 187.528 97.4315 187.528C97.6279 187.528 98.0164 187.556 98.5991 187.608C99.1797 187.661 99.882 187.688 100.706 187.688H108.971C109.776 187.688 110.47 187.661 111.05 187.608C111.631 187.556 112.03 187.528 112.244 187.528C112.44 187.528 112.583 187.608 112.673 187.765C112.726 187.906 112.767 188.135 112.794 188.452C112.822 188.769 112.88 189.129 112.969 189.532C113.023 189.849 113.091 190.17 113.17 190.495C113.251 190.821 113.362 191.194 113.505 191.616C113.415 191.652 113.304 191.692 113.17 191.736C113.035 191.78 112.916 191.801 112.807 191.801C112.611 191.801 112.468 191.721 112.378 191.564C112.162 191.106 111.953 190.716 111.748 190.391C111.543 190.065 111.311 189.801 111.05 189.599C110.79 189.398 110.487 189.247 110.139 189.15C109.791 189.054 109.375 189.006 108.89 189.006H106.525Z" fill="#203446"/>
<path d="M120.157 202.88C120.157 203.056 120.169 203.201 120.197 203.314C120.225 203.43 120.295 203.53 120.413 203.618C120.528 203.707 120.699 203.782 120.923 203.843C121.147 203.904 121.446 203.963 121.822 204.015C122.001 204.051 122.091 204.2 122.091 204.464C122.091 204.517 122.086 204.596 122.078 204.701C122.069 204.806 122.054 204.894 122.037 204.966C121.465 204.93 120.853 204.901 120.199 204.873C119.546 204.846 118.97 204.833 118.468 204.833C117.949 204.833 117.369 204.846 116.724 204.873C116.08 204.901 115.471 204.93 114.899 204.966C114.863 204.894 114.846 204.808 114.846 204.701C114.846 204.594 114.846 204.517 114.846 204.464C114.846 204.183 114.935 204.034 115.115 204.015C115.49 203.963 115.789 203.906 116.013 203.843C116.237 203.782 116.402 203.707 116.511 203.618C116.617 203.53 116.69 203.43 116.726 203.314C116.763 203.201 116.78 203.054 116.78 202.88V189.664C116.78 189.488 116.763 189.343 116.726 189.23C116.69 189.117 116.62 189.014 116.511 188.926C116.404 188.838 116.237 188.764 116.013 188.701C115.789 188.64 115.49 188.582 115.115 188.529C114.935 188.477 114.846 188.328 114.846 188.08C114.846 188.028 114.846 187.948 114.846 187.843C114.846 187.738 114.863 187.642 114.899 187.553C115.471 187.589 116.08 187.618 116.724 187.646C117.369 187.673 117.949 187.686 118.468 187.686C118.97 187.686 119.546 187.673 120.199 187.646C120.853 187.618 121.465 187.589 122.037 187.553C122.054 187.642 122.067 187.738 122.078 187.843C122.086 187.948 122.091 188.028 122.091 188.08C122.091 188.326 122.001 188.477 121.822 188.529C121.446 188.582 121.147 188.638 120.923 188.701C120.699 188.762 120.53 188.838 120.413 188.926C120.295 189.014 120.225 189.115 120.197 189.23C120.169 189.345 120.157 189.49 120.157 189.664V202.88Z" fill="#203446"/>
<path d="M133.091 205.148C131.588 205.148 130.273 204.919 129.146 204.462C128.019 204.004 127.088 203.377 126.356 202.576C125.622 201.776 125.073 200.834 124.706 199.753C124.339 198.673 124.155 197.506 124.155 196.257C124.155 195.221 124.335 194.174 124.691 193.118C125.05 192.063 125.613 191.11 126.382 190.256C127.15 189.404 128.134 188.71 129.334 188.172C130.531 187.635 131.964 187.369 133.627 187.369C134.538 187.369 135.394 187.43 136.188 187.553C136.984 187.677 137.847 187.862 138.777 188.107C138.814 188.582 138.884 189.188 138.993 189.927C139.102 190.665 139.251 191.387 139.45 192.09C139.36 192.107 139.245 192.13 139.102 192.155C138.959 192.182 138.852 192.195 138.779 192.195C138.636 192.195 138.515 192.174 138.417 192.13C138.318 192.086 138.25 191.993 138.216 191.853C138.02 191.272 137.795 190.785 137.546 190.388C137.296 189.992 136.995 189.677 136.647 189.438C136.299 189.201 135.891 189.028 135.426 188.924C134.961 188.819 134.414 188.766 133.789 188.766C132.822 188.766 131.968 188.93 131.227 189.255C130.484 189.58 129.863 190.046 129.362 190.653C128.86 191.259 128.48 191.989 128.222 192.841C127.961 193.695 127.833 194.656 127.833 195.731C127.833 196.874 127.989 197.938 128.303 198.922C128.614 199.906 129.046 200.76 129.59 201.48C130.136 202.202 130.783 202.764 131.535 203.167C132.286 203.572 133.099 203.774 133.977 203.774C134.692 203.774 135.304 203.709 135.815 203.576C136.325 203.444 136.762 203.243 137.129 202.97C137.497 202.697 137.808 202.351 138.069 201.927C138.327 201.505 138.566 201.012 138.779 200.45C138.833 200.309 138.918 200.209 139.033 200.146C139.149 200.085 139.27 200.053 139.396 200.053C139.486 200.053 139.597 200.066 139.732 200.093C139.866 200.118 139.977 200.15 140.067 200.185C139.96 200.486 139.847 200.823 139.732 201.201C139.614 201.579 139.495 201.967 139.369 202.361C139.243 202.758 139.132 203.153 139.033 203.549C138.935 203.946 138.85 204.328 138.779 204.697C137.902 204.854 137.008 204.97 136.096 205.039C135.185 205.112 134.182 205.148 133.091 205.148Z" fill="#203446"/>
<path d="M157.643 199.027H152.008L150.612 202.693C150.558 202.781 150.522 202.878 150.505 202.983C150.488 203.088 150.477 203.167 150.477 203.22C150.477 203.413 150.571 203.572 150.759 203.694C150.947 203.818 151.327 203.923 151.899 204.011C152.149 204.047 152.274 204.212 152.274 204.512C152.274 204.636 152.257 204.785 152.221 204.961C151.739 204.926 151.228 204.896 150.691 204.869C150.155 204.842 149.625 204.829 149.107 204.829C148.748 204.829 148.372 204.838 147.98 204.857C147.587 204.873 147.147 204.909 146.665 204.961C146.628 204.89 146.611 204.812 146.611 204.724C146.611 204.636 146.611 204.567 146.611 204.512C146.611 204.179 146.727 204.003 146.959 203.986C147.514 203.881 147.911 203.765 148.153 203.644C148.394 203.522 148.586 203.31 148.729 203.01L155.197 187.816C155.34 187.518 155.555 187.367 155.841 187.367C155.931 187.367 156.021 187.371 156.11 187.379C156.2 187.388 156.298 187.402 156.405 187.419L162.873 203.088C162.98 203.352 163.184 203.549 163.49 203.681C163.793 203.814 164.124 203.906 164.482 203.958C164.751 204.011 164.886 204.187 164.886 204.485C164.886 204.626 164.869 204.785 164.832 204.959C164.26 204.924 163.697 204.894 163.142 204.867C162.587 204.84 162.068 204.827 161.586 204.827C161.336 204.827 161.031 204.831 160.674 204.84C160.316 204.848 159.95 204.861 159.575 204.88C159.199 204.896 158.828 204.911 158.461 204.92C158.093 204.928 157.786 204.94 157.534 204.959C157.498 204.888 157.481 204.81 157.481 204.722C157.481 204.634 157.481 204.565 157.481 204.51C157.481 204.353 157.513 204.233 157.575 204.154C157.637 204.074 157.705 204.026 157.775 204.009C158.241 203.921 158.584 203.82 158.808 203.705C159.033 203.591 159.144 203.419 159.144 203.19C159.144 203.086 159.116 202.953 159.062 202.794L157.643 199.027ZM157.133 197.71L154.853 191.775L152.518 197.71H157.133Z" fill="#203446"/>
<path d="M172.777 197.181H171.622V202.693C171.622 203.098 171.797 203.383 172.145 203.551C172.493 203.719 173.089 203.856 173.93 203.961C174.179 203.996 174.305 204.172 174.305 204.487C174.305 204.628 174.288 204.787 174.252 204.961C173.733 204.926 173.084 204.896 172.307 204.869C171.53 204.842 170.683 204.829 169.771 204.829C169.127 204.829 168.506 204.842 167.906 204.869C167.306 204.896 166.747 204.926 166.228 204.961C166.192 204.89 166.175 204.812 166.175 204.724C166.175 204.636 166.175 204.567 166.175 204.512C166.175 204.214 166.273 204.047 166.469 204.011C166.845 203.942 167.148 203.874 167.381 203.814C167.613 203.753 167.793 203.681 167.916 203.602C168.042 203.522 168.126 203.425 168.171 203.312C168.215 203.199 168.237 203.052 168.237 202.878V189.662C168.237 189.31 168.106 189.056 167.848 188.896C167.588 188.739 167.093 188.615 166.358 188.527C166.269 188.491 166.198 188.439 166.143 188.37C166.089 188.3 166.062 188.177 166.062 188C166.062 187.931 166.062 187.851 166.062 187.763C166.062 187.675 166.079 187.606 166.115 187.553C166.617 187.589 167.193 187.618 167.846 187.646C168.499 187.673 169.084 187.686 169.603 187.686H173.654C174.602 187.686 175.452 187.801 176.203 188.028C176.954 188.256 177.595 188.582 178.122 189.003C178.649 189.425 179.053 189.927 179.33 190.508C179.608 191.089 179.746 191.731 179.746 192.434C179.746 193.366 179.456 194.216 178.876 194.98C178.295 195.745 177.494 196.32 176.474 196.706L180.688 202.748C181.01 203.205 181.382 203.522 181.802 203.698C182.223 203.874 182.611 204.007 182.97 204.095C183.059 204.112 183.13 204.151 183.185 204.214C183.239 204.275 183.266 204.386 183.266 204.544C183.266 204.615 183.266 204.693 183.266 204.781C183.266 204.869 183.249 204.957 183.213 205.045C183.017 205.029 182.739 205.014 182.381 205.005C182.022 204.997 181.651 204.982 181.266 204.966C180.882 204.949 180.498 204.934 180.111 204.926C179.727 204.917 179.409 204.913 179.159 204.913C178.784 204.913 178.408 204.76 178.032 204.452C177.657 204.145 177.29 203.736 176.933 203.226L172.777 197.181ZM172.429 195.863C172.984 195.863 173.484 195.81 173.932 195.706C174.378 195.601 174.764 195.42 175.087 195.164C175.409 194.91 175.654 194.57 175.825 194.149C175.996 193.727 176.079 193.19 176.079 192.539C176.079 191.448 175.81 190.588 175.274 189.954C174.739 189.32 173.789 189.003 172.429 189.003H171.624V195.861H172.429V195.863Z" fill="#203446"/>
<path d="M192.5 189.006V202.88C192.5 203.056 192.513 203.201 192.541 203.314C192.567 203.43 192.635 203.53 192.742 203.619C192.848 203.707 193 203.782 193.198 203.843C193.395 203.904 193.672 203.963 194.031 204.015C194.3 204.068 194.434 204.217 194.434 204.464C194.434 204.517 194.43 204.596 194.422 204.701C194.413 204.806 194.398 204.894 194.381 204.966C193.809 204.93 193.196 204.901 192.543 204.873C191.89 204.846 191.314 204.834 190.812 204.834C190.293 204.834 189.717 204.846 189.081 204.873C188.445 204.901 187.843 204.93 187.269 204.966C187.232 204.894 187.211 204.808 187.202 204.701C187.194 204.596 187.19 204.517 187.19 204.464C187.19 204.34 187.211 204.24 187.256 204.16C187.301 204.08 187.42 204.024 187.619 203.988C188.28 203.9 188.697 203.782 188.867 203.631C189.038 203.482 189.121 203.23 189.121 202.88V189.006H186.761C186.259 189.006 185.834 189.054 185.486 189.15C185.138 189.247 184.833 189.396 184.575 189.599C184.314 189.801 184.082 190.065 183.877 190.391C183.672 190.716 183.46 191.108 183.247 191.564C183.174 191.721 183.042 191.801 182.844 191.801C182.737 191.801 182.611 191.78 182.468 191.736C182.325 191.692 182.218 191.652 182.146 191.616C182.271 191.194 182.378 190.821 182.468 190.495C182.557 190.17 182.628 189.849 182.683 189.532C182.754 189.127 182.807 188.766 182.844 188.452C182.88 188.135 182.925 187.906 182.978 187.765C183.048 187.608 183.194 187.528 183.407 187.528C183.603 187.528 183.992 187.556 184.575 187.608C185.155 187.661 185.858 187.688 186.682 187.688H194.947C195.751 187.688 196.445 187.661 197.026 187.608C197.606 187.556 198.006 187.528 198.219 187.528C198.415 187.528 198.558 187.608 198.648 187.765C198.701 187.906 198.742 188.135 198.77 188.452C198.798 188.769 198.855 189.129 198.945 189.532C198.998 189.849 199.067 190.17 199.146 190.495C199.227 190.821 199.338 191.194 199.481 191.616C199.391 191.652 199.28 191.692 199.146 191.736C199.011 191.78 198.891 191.801 198.783 191.801C198.586 191.801 198.443 191.721 198.354 191.564C198.138 191.106 197.929 190.716 197.724 190.391C197.519 190.065 197.286 189.801 197.026 189.599C196.765 189.398 196.462 189.247 196.114 189.15C195.766 189.054 195.35 189.006 194.866 189.006H192.5Z" fill="#203446"/>
<path d="M212.304 191.96C212.144 192.012 211.973 192.04 211.794 192.04C211.544 192.04 211.365 191.991 211.258 191.895C211.151 191.798 211.079 191.698 211.045 191.591C210.633 190.588 210.101 189.868 209.448 189.427C208.795 188.989 207.922 188.768 206.831 188.768C205.973 188.768 205.243 188.976 204.643 189.387C204.043 189.801 203.744 190.43 203.744 191.274C203.744 191.924 203.973 192.447 204.429 192.843C204.886 193.24 205.458 193.586 206.146 193.886C206.835 194.186 207.576 194.476 208.372 194.757C209.168 195.038 209.911 195.391 210.599 195.813C211.286 196.234 211.86 196.772 212.315 197.422C212.772 198.073 213 198.908 213 199.927C213 200.597 212.883 201.247 212.652 201.879C212.419 202.513 212.052 203.071 211.553 203.553C211.051 204.038 210.417 204.424 209.649 204.714C208.88 205.003 207.958 205.148 206.884 205.148C205.704 205.148 204.647 205.022 203.719 204.773C202.788 204.523 202.019 204.252 201.411 203.958C201.358 203.205 201.272 202.462 201.157 201.732C201.04 201.002 200.912 200.295 200.769 199.609C200.948 199.539 201.153 199.504 201.385 199.504C201.601 199.504 201.761 199.543 201.868 199.623C201.975 199.703 202.064 199.839 202.137 200.032C202.37 200.702 202.628 201.277 202.916 201.759C203.202 202.244 203.533 202.639 203.909 202.947C204.284 203.255 204.718 203.48 205.211 203.621C205.702 203.761 206.269 203.83 206.914 203.83C207.469 203.83 207.943 203.755 208.336 203.606C208.729 203.457 209.051 203.258 209.303 203.012C209.553 202.767 209.74 202.475 209.866 202.139C209.99 201.806 210.054 201.461 210.054 201.109C210.054 200.351 209.834 199.758 209.397 199.325C208.959 198.893 208.413 198.532 207.759 198.242C207.106 197.953 206.4 197.678 205.64 197.424C204.88 197.168 204.173 196.843 203.52 196.446C202.867 196.05 202.32 195.54 201.883 194.914C201.445 194.289 201.225 193.448 201.225 192.392C201.225 191.687 201.356 191.03 201.614 190.424C201.872 189.818 202.254 189.289 202.754 188.84C203.255 188.391 203.857 188.034 204.566 187.77C205.273 187.505 206.082 187.373 206.995 187.373C207.747 187.373 208.502 187.453 209.262 187.61C210.022 187.767 210.887 188.032 211.852 188.401C211.888 188.928 211.945 189.522 212.027 190.183C212.108 190.844 212.197 191.431 212.304 191.96Z" fill="#203446"/>
<defs>
<clipPath id="clip0_132_801">
<rect width="166" height="164" fill="white" transform="translate(31 17.3667)"/>
</clipPath>
</defs>
</svg>
