<svg width="110" height="111" viewBox="0 0 110 111" fill="none" xmlns="http://www.w3.org/2000/svg">
<g clip-path="url(#clip0_107_4)">
<path d="M55.0587 13.1995L55.1111 19.0235H57.1219C57.1219 19.0235 59.0729 9.37256 67.6577 2.90706C67.6577 2.90706 68.4104 2.41027 67.7581 0.924183C67.7581 0.924183 67.2529 -0.246938 65.4649 0.0880763C65.4649 0.0880763 57.6257 4.65801 44.9714 0.0880763C44.9714 0.0880763 43.1397 -0.405854 42.4947 0.945655C41.8497 2.29717 42.4947 2.87127 42.4947 2.87127C42.4947 2.87127 47.9882 7.58866 51.0372 14.067C51.0372 14.067 52.3855 16.5797 52.9751 19.0235H55.1097L55.0587 13.1995C55.0587 13.1995 53.9638 10.4892 50.8158 5.94653H59.319C59.319 5.94653 56.3182 10.6983 55.0587 13.1995Z" fill="#FAFAFA"/>
<path d="M56.2729 90.6606H53.8298C53.342 90.6606 52.9459 90.2712 52.9459 89.7917V18.0214C52.9459 17.5417 53.342 17.1523 53.8298 17.1523H56.2729C56.7607 17.1523 57.1568 17.5417 57.1568 18.0214V89.793C57.1568 90.2712 56.7607 90.6606 56.2729 90.6606Z" fill="#FAFAFA"/>
<path d="M32.0521 68.0914L36.2032 63.9353L34.7821 62.5381C34.7821 62.5381 26.4609 68.0056 15.7417 66.6084C15.7417 66.6084 14.8521 66.4369 14.2449 67.9398C14.2449 67.9398 13.7601 69.1196 15.2641 70.1244C15.2641 70.1244 24.0935 72.344 29.7545 84.3726C29.7545 84.3726 30.6936 85.995 32.122 85.4878C33.5503 84.9812 33.5066 84.1268 33.5066 84.1268C33.5066 84.1268 33.0145 76.9722 35.5174 70.2693C35.5174 70.2693 36.3706 67.5546 37.7116 65.4171L36.2032 63.9341L32.0521 68.0914C32.0521 68.0914 30.8785 70.7705 29.836 76.1692L23.8241 70.2578C23.8255 70.2578 29.3643 68.985 32.0521 68.0914Z" fill="#FAFAFA"/>
<path d="M86.8987 12.475L88.6272 14.1745C88.972 14.5138 88.972 15.0635 88.6272 15.4029L37.0142 66.1531C36.6691 66.4925 36.11 66.4925 35.7649 66.1531L34.0366 64.454C33.6916 64.1147 33.6916 63.5646 34.0366 63.2252L85.6497 12.475C85.9945 12.1358 86.5539 12.1358 86.8987 12.475Z" fill="#FAFAFA"/>
<path d="M31.9706 22.6514L36.1959 26.7331L37.617 25.3359C37.617 25.3359 32.0565 17.1538 33.4776 6.61369C33.4776 6.61369 33.6523 5.73894 32.1234 5.14192C32.1234 5.14192 30.9237 4.66517 29.9016 6.1441C29.9016 6.1441 27.6447 14.8258 15.4112 20.3922C15.4112 20.3922 13.7616 21.3157 14.277 22.7201C14.7924 24.1246 15.6617 24.0817 15.6617 24.0817C15.6617 24.0817 22.9374 23.5978 29.7545 26.0588C29.7545 26.0588 32.5151 26.8978 34.689 28.2164L36.1959 26.7331L31.9706 22.6514C31.9706 22.6514 29.2464 21.4975 23.7557 20.4724L29.7676 14.5609C29.7661 14.5609 31.062 20.0071 31.9706 22.6514Z" fill="#FAFAFA"/>
<path d="M88.5326 76.5816L86.8041 78.2807C86.4593 78.62 85.8999 78.62 85.5551 78.2807L33.942 27.5306C33.597 27.1913 33.597 26.6415 33.942 26.3022L35.6703 24.6028C36.0154 24.2635 36.5745 24.2635 36.9196 24.6028L88.5326 75.3534C88.8774 75.6909 88.8774 76.2422 88.5326 76.5816Z" fill="#FAFAFA"/>
<path d="M22.4409 45.2806L28.364 45.229V43.2519C28.364 43.2519 18.549 41.3334 11.9736 32.8923C11.9736 32.8923 11.4683 32.152 9.95698 32.7935C9.95698 32.7935 8.76596 33.2902 9.10666 35.0483C9.10666 35.0483 13.7543 42.7565 9.10666 55.1993C9.10666 55.1993 8.60434 57.0004 9.97882 57.6346C11.3533 58.2688 11.9372 57.6346 11.9372 57.6346C11.9372 57.6346 16.7347 52.2328 23.3232 49.2349C23.3232 49.2349 25.8786 47.9092 28.364 47.3293V45.2305L22.4409 45.2806C22.4409 45.2806 19.6847 46.3572 15.0647 49.4525V41.0915C15.0647 41.0929 19.8972 44.0436 22.4409 45.2806Z" fill="#FAFAFA"/>
<path d="M101.219 44.088V46.4903C101.219 46.9699 100.823 47.3594 100.335 47.3594H27.3433C26.8555 47.3594 26.4595 46.9699 26.4595 46.4903V44.088C26.4595 43.6084 26.8555 43.2189 27.3433 43.2189H100.335C100.823 43.2189 101.219 43.6084 101.219 44.088Z" fill="#FAFAFA"/>
</g>
<path d="M9.22625 97.6599C9.26538 97.5725 9.33061 97.5037 9.41955 97.4547C9.50849 97.4058 9.72788 97.3813 10.0753 97.3813C10.1548 97.3813 10.271 97.379 10.4252 97.3743C10.5794 97.3696 10.7454 97.365 10.9244 97.3592C11.1035 97.3545 11.2826 97.3475 11.4617 97.337C11.6407 97.3277 11.7949 97.3172 11.9242 97.3079C11.9443 97.3568 11.9538 97.4058 11.9538 97.4547C11.9538 97.5037 11.9538 97.5422 11.9538 97.5725C11.9538 97.7287 11.8993 97.822 11.7901 97.8511C11.5909 97.8803 11.4344 97.9094 11.3205 97.9385C11.2067 97.9677 11.1189 98.005 11.0596 98.0481C11.0003 98.0924 10.96 98.1437 10.9399 98.202C10.9197 98.2603 10.9102 98.3291 10.9102 98.4072C10.9102 98.427 10.9173 98.6123 10.9327 98.9644C10.9482 99.3165 10.9695 99.7513 11.0003 100.269C11.03 100.786 11.0596 101.348 11.0893 101.955C11.1189 102.561 11.1486 103.134 11.1782 103.676C11.2079 104.218 11.2328 104.691 11.2529 105.09C11.2731 105.491 11.2873 105.735 11.298 105.824C11.298 105.922 11.3099 106.002 11.3348 106.065C11.3597 106.129 11.4047 106.185 11.4688 106.234C11.5328 106.283 11.6253 106.325 11.7451 106.359C11.8649 106.393 12.0178 106.425 12.2076 106.454C12.3167 106.474 12.3712 106.566 12.3712 106.733C12.3712 106.802 12.3618 106.885 12.3416 106.982C11.9941 106.963 11.6787 106.946 11.3952 106.931C11.1118 106.916 10.7916 106.909 10.4335 106.909C10.105 106.909 9.75516 106.916 9.38279 106.931C9.01042 106.946 8.69971 106.963 8.45067 106.982C8.43051 106.885 8.42103 106.802 8.42103 106.733C8.42103 106.626 8.43882 106.552 8.47321 106.513C8.5076 106.474 8.5408 106.454 8.57045 106.454C8.9784 106.387 9.24166 106.305 9.36025 106.213C9.48003 106.12 9.53932 105.976 9.53932 105.781C9.53932 105.751 9.53221 105.595 9.51679 105.312C9.50138 105.029 9.48714 104.677 9.47173 104.257C9.45631 103.837 9.43734 103.383 9.41243 102.894C9.38753 102.406 9.36263 101.946 9.33772 101.516C9.31282 101.086 9.29266 100.715 9.27843 100.403C9.26301 100.091 9.25115 99.8993 9.24166 99.8317L6.18562 106.822C6.13581 106.909 6.09312 106.975 6.05873 107.02C6.02434 107.064 5.9769 107.086 5.91761 107.086C5.89745 107.086 5.8678 107.086 5.82866 107.086C5.78834 107.086 5.7587 107.082 5.73972 107.071L2.28166 98.9236C2.27217 99.0507 2.25913 99.3071 2.24489 99.693C2.22948 100.079 2.2105 100.521 2.1856 101.02C2.1607 101.517 2.13579 102.043 2.11089 102.595C2.08598 103.147 2.06345 103.657 2.04329 104.126C2.02313 104.595 2.00653 104.989 1.99111 105.306C1.9757 105.623 1.96858 105.797 1.96858 105.826C1.96858 105.913 1.97807 105.989 1.99823 106.053C2.01839 106.118 2.05752 106.173 2.11801 106.222C2.1773 106.271 2.26743 106.313 2.38602 106.347C2.50579 106.381 2.66944 106.418 2.87816 106.457C2.98726 106.477 3.04182 106.569 3.04182 106.735C3.04182 106.764 3.03944 106.802 3.0347 106.845C3.02996 106.889 3.02166 106.935 3.01217 106.984C2.74416 106.964 2.49512 106.948 2.26624 106.932C2.03736 106.917 1.80849 106.91 1.58079 106.91C1.38156 106.91 1.13371 106.917 0.834868 106.932C0.536023 106.948 0.268012 106.964 0.0296473 106.984C0.00948715 106.944 0 106.901 0 106.852C0 106.803 0 106.764 0 106.734C0 106.627 0.0154154 106.556 0.0450627 106.522C0.07471 106.488 0.115032 106.466 0.164839 106.456C0.473171 106.388 0.696118 106.309 0.836053 106.221C0.974803 106.134 1.05426 106.001 1.07442 105.826C1.07442 105.748 1.08391 105.511 1.10407 105.115C1.12423 104.72 1.14913 104.25 1.17878 103.708C1.20842 103.166 1.23807 102.59 1.26772 101.979C1.29737 101.368 1.32464 100.802 1.34955 100.279C1.37445 99.7571 1.39461 99.32 1.40884 98.9679C1.42426 98.6158 1.43137 98.4305 1.43137 98.4107C1.43137 98.2451 1.37682 98.1251 1.26772 98.0516C1.15862 97.9782 0.920252 97.9129 0.552625 97.8534C0.443523 97.8441 0.388973 97.7508 0.388973 97.5748C0.388973 97.5457 0.388973 97.506 0.388973 97.4571C0.388973 97.4081 0.39846 97.3592 0.41862 97.3102C0.547883 97.3195 0.726952 97.33 0.95583 97.3393C1.18471 97.3487 1.41833 97.3568 1.65669 97.3615C1.89506 97.3662 2.11919 97.3708 2.32791 97.3766C2.53662 97.3813 2.68605 97.3836 2.77499 97.3836C2.95406 97.3836 3.09281 97.3906 3.19242 97.4058C3.29204 97.4209 3.37149 97.4373 3.43079 97.4571C3.49008 97.4769 3.53278 97.506 3.55768 97.5445C3.58258 97.5841 3.60511 97.6226 3.62527 97.6622L6.39789 104.242L9.22625 97.6599Z" fill="#FAFAFA"/>
<path d="M19.1546 103.682H16.0238L15.2482 105.719C15.2186 105.768 15.1984 105.821 15.189 105.88C15.1795 105.938 15.1735 105.982 15.1735 106.011C15.1735 106.119 15.2257 106.207 15.3301 106.275C15.4344 106.344 15.6455 106.402 15.9633 106.451C16.1021 106.471 16.1721 106.563 16.1721 106.73C16.1721 106.798 16.1626 106.881 16.1424 106.979C15.8744 106.959 15.591 106.943 15.2921 106.928C14.9945 106.913 14.7004 106.906 14.4122 106.906C14.213 106.906 14.0042 106.91 13.786 106.921C13.5678 106.93 13.3235 106.95 13.0555 106.979C13.0354 106.939 13.0259 106.896 13.0259 106.847C13.0259 106.798 13.0259 106.76 13.0259 106.73C13.0259 106.544 13.0899 106.446 13.2192 106.437C13.5275 106.379 13.7481 106.315 13.8821 106.247C14.0161 106.179 14.1228 106.062 14.2023 105.895L17.7956 97.4536C17.875 97.2881 17.9948 97.2042 18.1537 97.2042C18.2035 97.2042 18.2533 97.2065 18.3031 97.2112C18.3529 97.2158 18.4075 97.224 18.4668 97.2333L22.06 105.938C22.1193 106.085 22.2344 106.194 22.4028 106.268C22.5712 106.341 22.755 106.393 22.9542 106.422C23.1036 106.451 23.1783 106.549 23.1783 106.714C23.1783 106.793 23.1689 106.881 23.1487 106.978C22.8309 106.958 22.5178 106.942 22.2095 106.927C21.9011 106.911 21.613 106.904 21.3449 106.904C21.2062 106.904 21.0366 106.907 20.8386 106.911C20.6393 106.916 20.4366 106.923 20.2278 106.934C20.0191 106.943 19.8128 106.951 19.6088 106.956C19.4048 106.96 19.2341 106.967 19.0941 106.978C19.074 106.938 19.0645 106.895 19.0645 106.846C19.0645 106.797 19.0645 106.759 19.0645 106.728C19.0645 106.641 19.0823 106.575 19.1166 106.53C19.151 106.486 19.189 106.459 19.2281 106.45C19.4866 106.401 19.6776 106.345 19.8021 106.281C19.9266 106.218 19.9883 106.122 19.9883 105.995C19.9883 105.937 19.9729 105.863 19.9432 105.775L19.1546 103.682ZM18.8712 102.95L17.6034 99.6534L16.3061 102.95H18.8712Z" fill="#FAFAFA"/>
<path d="M24.5208 98.4806C24.5208 98.3827 24.5113 98.3023 24.4911 98.2393C24.4709 98.1764 24.4318 98.1192 24.3713 98.0703C24.312 98.0213 24.2195 97.9805 24.095 97.9455C23.9705 97.9117 23.8045 97.8791 23.5958 97.8499C23.4961 97.8208 23.4463 97.738 23.4463 97.6005C23.4463 97.5713 23.4463 97.527 23.4463 97.4687C23.4463 97.4104 23.4558 97.3568 23.476 97.3079C23.7938 97.3277 24.1342 97.344 24.497 97.3592C24.8599 97.3743 25.1849 97.3813 25.473 97.3813C25.7517 97.3813 26.0695 97.3743 26.4277 97.3592C26.7858 97.344 27.1238 97.3277 27.4416 97.3079C27.4511 97.3568 27.4594 97.4104 27.4642 97.4687C27.4689 97.527 27.4713 97.5713 27.4713 97.6005C27.4713 97.7369 27.4215 97.8208 27.3218 97.8499C27.1131 97.8791 26.9471 97.9106 26.8226 97.9455C26.6981 97.9793 26.6044 98.0213 26.5392 98.0703C26.4739 98.1192 26.4348 98.1752 26.4194 98.2393C26.404 98.3034 26.3968 98.3839 26.3968 98.4806V104.826C26.3968 105.51 26.3494 106.093 26.2557 106.577C26.1609 107.061 25.9996 107.498 25.7707 107.888C25.5418 108.279 25.2264 108.647 24.8243 108.995C24.4223 109.341 23.9171 109.72 23.3111 110.13C23.2317 110.061 23.1641 109.998 23.1095 109.94C23.055 109.882 23.0277 109.822 23.0277 109.764C23.0277 109.686 23.0526 109.622 23.1024 109.574C23.3811 109.311 23.6088 109.056 23.7879 108.812C23.9669 108.567 24.1104 108.316 24.2207 108.057C24.3298 107.799 24.4069 107.525 24.452 107.237C24.497 106.949 24.5196 106.634 24.5196 106.291V98.4806H24.5208Z" fill="#FAFAFA"/>
<path d="M31.7512 98.1146V101.647H33.8525C34.0411 101.647 34.1704 101.571 34.2403 101.419C34.3103 101.268 34.3696 101.022 34.4194 100.679C34.4289 100.601 34.4585 100.55 34.5083 100.525C34.5582 100.501 34.6222 100.489 34.7016 100.489C34.7313 100.489 34.7787 100.492 34.8428 100.496C34.9068 100.501 34.9542 100.509 34.9839 100.518C34.9637 100.743 34.9471 101.004 34.9317 101.303C34.9163 101.601 34.9092 101.852 34.9092 102.057C34.9092 102.233 34.9139 102.441 34.9246 102.68C34.9341 102.919 34.9542 103.19 34.9839 103.493C34.9542 103.513 34.9068 103.525 34.8428 103.53C34.7775 103.534 34.7313 103.536 34.7016 103.536C34.5226 103.536 34.4277 103.469 34.4182 103.331C34.3589 102.961 34.2913 102.709 34.2166 102.577C34.1419 102.445 34.0198 102.379 33.8514 102.379H31.75V105.662C31.75 105.867 31.8792 106.003 32.1378 106.072C32.3963 106.141 32.8339 106.175 33.4493 106.175H34.0755C34.3732 106.175 34.6246 106.136 34.8285 106.057C35.0325 105.979 35.2139 105.869 35.3729 105.727C35.5318 105.586 35.6705 105.419 35.7903 105.229C35.9101 105.039 36.0287 104.826 36.1484 104.592C36.1781 104.524 36.248 104.489 36.3571 104.489C36.407 104.489 36.4662 104.504 36.5362 104.533C36.605 104.562 36.675 104.592 36.7449 104.621C36.7248 104.699 36.7022 104.772 36.6773 104.841C36.6524 104.91 36.6299 104.977 36.6097 105.046C36.5599 105.153 36.5208 105.271 36.49 105.398C36.4603 105.525 36.4307 105.628 36.401 105.706C36.3809 105.804 36.3583 105.913 36.3334 106.036C36.3085 106.158 36.2836 106.275 36.2587 106.388C36.2338 106.5 36.2089 106.6 36.184 106.689C36.1591 106.776 36.1413 106.836 36.1318 106.865C36.0915 106.943 36.012 106.982 35.8935 106.982C35.814 106.982 35.7002 106.978 35.5507 106.967C35.4013 106.958 35.24 106.95 35.0657 106.945C34.8914 106.941 34.7159 106.932 34.5368 106.923C34.3577 106.914 34.2036 106.908 34.0743 106.908H30.6898C30.4016 106.908 30.0708 106.915 29.6984 106.93C29.326 106.945 28.9904 106.961 28.6916 106.981C28.6714 106.942 28.6619 106.892 28.6619 106.827C28.6619 106.764 28.6619 106.718 28.6619 106.689C28.6619 106.542 28.7117 106.464 28.8113 106.454C29.1885 106.387 29.46 106.313 29.6237 106.235C29.7873 106.157 29.8692 106.021 29.8692 105.825V98.4829C29.8692 98.385 29.8537 98.3046 29.8241 98.2416C29.7944 98.1787 29.7375 98.1239 29.6521 98.0807C29.5679 98.0365 29.4588 97.998 29.3236 97.963C29.1896 97.9292 29.0177 97.8919 28.809 97.8534C28.7094 97.8243 28.6595 97.7368 28.6595 97.59C28.6595 97.541 28.6595 97.4944 28.6595 97.4512C28.6595 97.4069 28.669 97.3615 28.6892 97.3125C29.1161 97.3417 29.4944 97.3615 29.8217 97.3708C30.1502 97.3801 30.4324 97.386 30.672 97.386H33.728C34.1751 97.386 34.5605 97.3708 34.8831 97.3417C35.2056 97.3125 35.4274 97.2974 35.546 97.2974C35.6551 97.2974 35.7346 97.3417 35.7844 97.4291C35.814 97.5072 35.8389 97.6517 35.8591 97.8616C35.8792 98.0714 35.9136 98.2894 35.9634 98.5132C35.9931 98.68 36.0275 98.8408 36.0678 98.997C36.1069 99.1532 36.1674 99.3444 36.2469 99.5683C36.197 99.5881 36.1425 99.6079 36.0832 99.6265C36.0239 99.6464 35.9634 99.6557 35.9041 99.6557C35.795 99.6557 35.7156 99.6114 35.6658 99.524C35.546 99.2698 35.4298 99.053 35.3159 98.8723C35.2021 98.6916 35.0728 98.5447 34.9281 98.4328C34.7835 98.3209 34.6151 98.2405 34.4218 98.1915C34.2285 98.1425 33.9972 98.1181 33.728 98.1181H31.7512V98.1146Z" fill="#FAFAFA"/>
<path d="M44.0951 99.756C44.0061 99.7851 43.9113 99.8003 43.8116 99.8003C43.6729 99.8003 43.5733 99.7735 43.514 99.7198C43.4547 99.6662 43.4144 99.6103 43.3942 99.5508C43.1653 98.9936 42.87 98.5937 42.5072 98.3489C42.1443 98.1053 41.6593 97.9829 41.0533 97.9829C40.5765 97.9829 40.171 98.0983 39.8377 98.3268C39.5045 98.5564 39.3385 98.9061 39.3385 99.3748C39.3385 99.7362 39.4654 100.026 39.7191 100.247C39.9729 100.467 40.2907 100.659 40.6738 100.826C41.0568 100.993 41.4683 101.154 41.9107 101.31C42.353 101.466 42.7657 101.662 43.1475 101.896C43.5306 102.131 43.8484 102.429 44.1022 102.79C44.356 103.152 44.4829 103.616 44.4829 104.182C44.4829 104.554 44.4176 104.916 44.2896 105.267C44.1603 105.619 43.9563 105.929 43.6788 106.197C43.4001 106.466 43.0479 106.681 42.6198 106.841C42.1929 107.002 41.6806 107.083 41.0841 107.083C40.4283 107.083 39.8413 107.013 39.3254 106.874C38.8084 106.735 38.3815 106.585 38.0435 106.422C38.0138 106.003 37.9664 105.591 37.9024 105.185C37.8371 104.779 37.766 104.386 37.6865 104.005C37.7861 103.967 37.9 103.947 38.0292 103.947C38.149 103.947 38.238 103.969 38.2973 104.013C38.3566 104.058 38.4064 104.133 38.4467 104.241C38.5759 104.613 38.7194 104.932 38.8795 105.2C39.0384 105.469 39.2222 105.689 39.431 105.86C39.6397 106.031 39.8804 106.156 40.1544 106.234C40.4271 106.312 40.7437 106.351 41.1007 106.351C41.409 106.351 41.6723 106.309 41.8905 106.226C42.1087 106.143 42.2878 106.032 42.4277 105.896C42.5665 105.76 42.6708 105.598 42.7408 105.411C42.8108 105.226 42.8451 105.035 42.8451 104.839C42.8451 104.418 42.723 104.088 42.4799 103.848C42.2368 103.608 41.9332 103.407 41.5703 103.246C41.2074 103.085 40.8149 102.933 40.3927 102.792C39.9705 102.649 39.578 102.469 39.2151 102.248C38.8523 102.028 38.5487 101.745 38.3056 101.397C38.0624 101.05 37.9403 100.583 37.9403 99.9961C37.9403 99.6044 38.0126 99.2396 38.1561 98.9026C38.2996 98.5657 38.5119 98.272 38.7894 98.0225C39.0681 97.773 39.4025 97.5749 39.7962 97.428C40.1887 97.2811 40.6382 97.2076 41.1458 97.2076C41.5632 97.2076 41.983 97.2519 42.4052 97.3394C42.8274 97.4268 43.3076 97.5737 43.8437 97.7789C43.8638 98.0715 43.8958 98.4014 43.9409 98.7686C43.9824 99.1323 44.0346 99.4622 44.0951 99.756Z" fill="#FAFAFA"/>
<path d="M50.8476 98.1146V105.823C50.8476 105.921 50.8547 106.001 50.8702 106.064C50.8856 106.128 50.9223 106.184 50.9816 106.233C51.0409 106.282 51.1251 106.324 51.2354 106.358C51.3445 106.392 51.4987 106.424 51.6979 106.453C51.8473 106.482 51.922 106.565 51.922 106.703C51.922 106.732 51.9197 106.776 51.9149 106.835C51.9102 106.893 51.9019 106.942 51.8924 106.981C51.5746 106.962 51.2342 106.945 50.8713 106.93C50.5085 106.915 50.1883 106.908 49.9096 106.908C49.6214 106.908 49.3012 106.915 48.9478 106.93C48.5944 106.945 48.26 106.962 47.941 106.981C47.9208 106.942 47.909 106.894 47.9042 106.835C47.8995 106.776 47.8971 106.732 47.8971 106.703C47.8971 106.634 47.909 106.578 47.9339 106.534C47.9588 106.489 48.0252 106.458 48.1355 106.438C48.5031 106.389 48.7344 106.324 48.8292 106.24C48.9241 106.157 48.9704 106.017 48.9704 105.823V98.1146H47.6588C47.3801 98.1146 47.1441 98.1414 46.9508 98.1951C46.7575 98.2487 46.5879 98.3315 46.4444 98.4445C46.2997 98.5565 46.1705 98.7033 46.0566 98.884C45.9428 99.0647 45.8254 99.2827 45.7068 99.5357C45.6665 99.6231 45.5929 99.6674 45.4826 99.6674C45.4233 99.6674 45.3534 99.6558 45.2739 99.6313C45.1945 99.6068 45.1352 99.5847 45.0948 99.5648C45.1636 99.3305 45.2241 99.123 45.2739 98.9423C45.3237 98.7616 45.3629 98.5833 45.3937 98.4072C45.4328 98.1823 45.4625 97.9817 45.4826 97.8069C45.5028 97.6309 45.5277 97.5038 45.5574 97.4257C45.5965 97.3382 45.6771 97.2939 45.7957 97.2939C45.9048 97.2939 46.1206 97.3091 46.4444 97.3382C46.767 97.3674 47.1571 97.3825 47.6149 97.3825H52.2067C52.6537 97.3825 53.0392 97.3674 53.3617 97.3382C53.6843 97.3091 53.906 97.2939 54.0246 97.2939C54.1337 97.2939 54.2132 97.3382 54.263 97.4257C54.2926 97.5038 54.3152 97.6309 54.3306 97.8069C54.346 97.9829 54.378 98.1834 54.4278 98.4072C54.4575 98.5833 54.4954 98.7616 54.5393 98.9423C54.5844 99.123 54.646 99.3305 54.7255 99.5648C54.6757 99.5847 54.614 99.6068 54.5393 99.6313C54.4646 99.6558 54.3982 99.6674 54.3377 99.6674C54.2286 99.6674 54.1492 99.6231 54.0993 99.5357C53.9796 99.2816 53.8634 99.0647 53.7495 98.884C53.6357 98.7033 53.5064 98.5565 53.3617 98.4445C53.217 98.3326 53.0486 98.2487 52.8553 98.1951C52.662 98.1414 52.4308 98.1146 52.1616 98.1146H50.8476Z" fill="#FAFAFA"/>
<path d="M58.4206 105.823C58.4206 105.92 58.4277 106.001 58.4431 106.064C58.4586 106.128 58.4977 106.184 58.5629 106.233C58.627 106.282 58.7218 106.324 58.8464 106.358C58.9709 106.391 59.1369 106.424 59.3456 106.453C59.4452 106.473 59.495 106.556 59.495 106.703C59.495 106.732 59.4927 106.776 59.4879 106.834C59.4832 106.893 59.4749 106.942 59.4654 106.981C59.1476 106.962 58.8072 106.945 58.4443 106.93C58.0814 106.915 57.7613 106.908 57.4826 106.908C57.1944 106.908 56.8718 106.915 56.5137 106.93C56.1555 106.945 55.8176 106.962 55.4997 106.981C55.4796 106.942 55.4701 106.894 55.4701 106.834C55.4701 106.775 55.4701 106.732 55.4701 106.703C55.4701 106.547 55.5199 106.464 55.6195 106.453C55.8282 106.424 55.9943 106.393 56.1188 106.358C56.2433 106.324 56.3346 106.282 56.3951 106.233C56.4544 106.184 56.4947 106.128 56.5149 106.064C56.535 106.001 56.5445 105.919 56.5445 105.823V98.4806C56.5445 98.3827 56.535 98.3023 56.5149 98.2393C56.4947 98.1764 56.4556 98.1192 56.3951 98.0703C56.3358 98.0213 56.2433 97.9805 56.1188 97.9455C55.9943 97.9117 55.8282 97.8791 55.6195 97.8499C55.5199 97.8208 55.4701 97.738 55.4701 97.6005C55.4701 97.5713 55.4701 97.527 55.4701 97.4687C55.4701 97.4104 55.4796 97.3568 55.4997 97.3079C55.8176 97.3277 56.1555 97.344 56.5137 97.3592C56.8718 97.3743 57.1944 97.3813 57.4826 97.3813C57.7613 97.3813 58.0814 97.3743 58.4443 97.3592C58.8072 97.344 59.1476 97.3277 59.4654 97.3079C59.4749 97.3568 59.482 97.4104 59.4879 97.4687C59.4927 97.527 59.495 97.5713 59.495 97.6005C59.495 97.7369 59.4452 97.8208 59.3456 97.8499C59.1369 97.8791 58.9709 97.9106 58.8464 97.9455C58.7218 97.9793 58.6281 98.0213 58.5629 98.0703C58.4977 98.1192 58.4586 98.1752 58.4431 98.2393C58.4277 98.3034 58.4206 98.3839 58.4206 98.4806V105.823Z" fill="#FAFAFA"/>
<path d="M65.606 107.083C64.7711 107.083 64.0406 106.956 63.4145 106.701C62.7883 106.447 62.2713 106.099 61.8645 105.653C61.4566 105.209 61.1518 104.686 60.9478 104.086C60.7438 103.485 60.6418 102.837 60.6418 102.143C60.6418 101.567 60.7415 100.986 60.9395 100.399C61.1387 99.813 61.4518 99.2837 61.8787 98.8093C62.3057 98.336 62.8523 97.9501 63.5188 97.6517C64.1841 97.3533 64.9798 97.2052 65.9037 97.2052C66.41 97.2052 66.8856 97.239 67.3267 97.3078C67.7691 97.3766 68.2482 97.4792 68.7652 97.6155C68.7854 97.879 68.8245 98.2159 68.885 98.6263C68.9455 99.0366 69.0285 99.4376 69.1388 99.8282C69.089 99.8375 69.0249 99.8503 68.9455 99.8643C68.866 99.8794 68.8067 99.8864 68.7664 99.8864C68.6869 99.8864 68.6194 99.8748 68.5648 99.8503C68.5103 99.8258 68.4723 99.7745 68.4533 99.6964C68.3442 99.3735 68.2197 99.1031 68.081 98.8827C67.9422 98.6624 67.775 98.4875 67.5817 98.3546C67.3884 98.2229 67.1619 98.1273 66.9034 98.069C66.6448 98.0107 66.3413 97.9816 65.9938 97.9816C65.4566 97.9816 64.9822 98.0725 64.5707 98.2532C64.158 98.4339 63.8129 98.6927 63.5342 99.0296C63.2556 99.3665 63.0445 99.7722 62.901 100.245C62.7563 100.72 62.6851 101.254 62.6851 101.851C62.6851 102.486 62.7717 103.077 62.946 103.624C63.1192 104.171 63.3587 104.645 63.6611 105.045C63.9647 105.446 64.324 105.758 64.7415 105.982C65.1589 106.207 65.6107 106.319 66.0981 106.319C66.4954 106.319 66.8358 106.283 67.1192 106.21C67.4026 106.136 67.6457 106.024 67.8497 105.873C68.0537 105.721 68.2268 105.529 68.3715 105.293C68.515 105.059 68.6478 104.785 68.7664 104.473C68.796 104.394 68.8435 104.338 68.9075 104.304C68.9716 104.27 69.0392 104.252 69.1091 104.252C69.1589 104.252 69.2206 104.259 69.2953 104.274C69.37 104.288 69.4317 104.306 69.4815 104.326C69.4222 104.492 69.3594 104.68 69.2953 104.89C69.2301 105.1 69.1637 105.315 69.0937 105.535C69.0237 105.755 68.9621 105.974 68.9075 106.194C68.853 106.415 68.8055 106.627 68.7664 106.832C68.279 106.919 67.7821 106.984 67.2757 107.022C66.7694 107.063 66.212 107.083 65.606 107.083Z" fill="#FAFAFA"/>
<path d="M79.2463 103.682H76.1155L75.3399 105.719C75.3103 105.768 75.2901 105.821 75.2806 105.88C75.2711 105.938 75.2652 105.982 75.2652 106.011C75.2652 106.119 75.3174 106.207 75.4218 106.275C75.5261 106.344 75.7372 106.402 76.055 106.451C76.1938 106.471 76.2637 106.563 76.2637 106.73C76.2637 106.798 76.2542 106.881 76.2341 106.979C75.9661 106.959 75.6826 106.943 75.3838 106.928C75.0861 106.913 74.792 106.906 74.5039 106.906C74.3046 106.906 74.0959 106.91 73.8777 106.921C73.6595 106.93 73.4152 106.95 73.1472 106.979C73.127 106.939 73.1176 106.896 73.1176 106.847C73.1176 106.798 73.1176 106.76 73.1176 106.73C73.1176 106.544 73.1816 106.446 73.3109 106.437C73.6192 106.379 73.8398 106.315 73.9738 106.247C74.1078 106.179 74.2145 106.062 74.294 105.895L77.8872 97.4536C77.9667 97.2881 78.0865 97.2042 78.2454 97.2042C78.2952 97.2042 78.345 97.2065 78.3948 97.2112C78.4446 97.2158 78.4991 97.224 78.5584 97.2333L82.1517 105.938C82.211 106.085 82.3248 106.194 82.4944 106.268C82.6628 106.341 82.8466 106.393 83.0459 106.422C83.1953 106.451 83.27 106.549 83.27 106.714C83.27 106.793 83.2605 106.881 83.2403 106.978C82.9225 106.958 82.6094 106.942 82.3011 106.927C81.9928 106.911 81.7046 106.904 81.4366 106.904C81.2978 106.904 81.1283 106.907 80.9302 106.911C80.731 106.916 80.5282 106.923 80.3195 106.934C80.1108 106.943 79.9044 106.951 79.7004 106.956C79.4965 106.96 79.3257 106.967 79.1858 106.978C79.1656 106.938 79.1561 106.895 79.1561 106.846C79.1561 106.797 79.1561 106.759 79.1561 106.728C79.1561 106.641 79.1739 106.575 79.2083 106.53C79.2427 106.486 79.2806 106.459 79.3198 106.45C79.5783 106.401 79.7692 106.345 79.8937 106.281C80.0183 106.218 80.0799 106.122 80.0799 105.995C80.0799 105.937 80.0645 105.863 80.0349 105.775L79.2463 103.682ZM78.9628 102.95L77.6963 99.6534L76.3989 102.95H78.9628Z" fill="#FAFAFA"/>
<path d="M87.6541 102.656H87.0126V105.719C87.0126 105.944 87.1098 106.102 87.3031 106.196C87.4964 106.289 87.8273 106.365 88.2945 106.423C88.4333 106.443 88.5033 106.541 88.5033 106.716C88.5033 106.794 88.4938 106.882 88.4736 106.979C88.1854 106.959 87.8249 106.943 87.3933 106.928C86.9616 106.913 86.4908 106.906 85.9844 106.906C85.6263 106.906 85.2812 106.913 84.9479 106.928C84.6147 106.943 84.304 106.959 84.0158 106.979C83.9957 106.939 83.9862 106.896 83.9862 106.847C83.9862 106.798 83.9862 106.76 83.9862 106.73C83.9862 106.564 84.0407 106.471 84.1498 106.451C84.3586 106.412 84.527 106.375 84.6562 106.341C84.7855 106.308 84.8851 106.268 84.9539 106.224C85.0238 106.179 85.0701 106.126 85.095 106.063C85.1199 106 85.1318 105.918 85.1318 105.821V98.4794C85.1318 98.2836 85.0594 98.1425 84.9159 98.0539C84.7713 97.9665 84.4961 97.8977 84.0882 97.8488C84.0384 97.829 83.9992 97.7998 83.9684 97.7613C83.9387 97.7229 83.9233 97.6541 83.9233 97.5562C83.9233 97.5177 83.9233 97.4734 83.9233 97.4244C83.9233 97.3755 83.9328 97.337 83.953 97.3079C84.2317 97.3277 84.5519 97.344 84.9147 97.3592C85.2776 97.3743 85.6026 97.3813 85.8907 97.3813H88.1415C88.6681 97.3813 89.1401 97.4454 89.5575 97.5713C89.9749 97.6984 90.3307 97.8791 90.6236 98.1134C90.9165 98.3477 91.1407 98.6263 91.2948 98.9493C91.449 99.2722 91.5261 99.6289 91.5261 100.019C91.5261 100.537 91.3648 101.009 91.0422 101.433C90.7197 101.859 90.275 102.178 89.7081 102.393L92.0491 105.749C92.2281 106.003 92.4345 106.179 92.6681 106.277C92.9017 106.375 93.1175 106.449 93.3168 106.498C93.3666 106.507 93.4057 106.529 93.4366 106.564C93.4662 106.598 93.4816 106.66 93.4816 106.747C93.4816 106.787 93.4816 106.83 93.4816 106.879C93.4816 106.928 93.4721 106.977 93.452 107.026C93.3429 107.016 93.1887 107.008 92.9895 107.003C92.7902 106.999 92.5839 106.991 92.3704 106.981C92.157 106.972 91.9435 106.964 91.7289 106.959C91.5154 106.955 91.3387 106.952 91.2 106.952C90.9912 106.952 90.7825 106.867 90.5738 106.696C90.3651 106.526 90.1611 106.298 89.9631 106.015L87.6541 102.656ZM87.4608 101.924C87.7692 101.924 88.0467 101.895 88.2957 101.837C88.5436 101.779 88.7582 101.678 88.9373 101.536C89.1164 101.395 89.2527 101.206 89.3476 100.972C89.4425 100.738 89.4887 100.439 89.4887 100.078C89.4887 99.4715 89.3393 98.9935 89.0416 98.6415C88.744 98.2894 88.2163 98.1134 87.4608 98.1134H87.0138V101.923H87.4608V101.924Z" fill="#FAFAFA"/>
<path d="M98.6119 98.1146V105.823C98.6119 105.921 98.619 106.001 98.6344 106.064C98.6487 106.128 98.6866 106.184 98.7459 106.233C98.8052 106.282 98.8894 106.324 98.9997 106.358C99.1088 106.392 99.2629 106.424 99.4622 106.453C99.6116 106.482 99.6863 106.565 99.6863 106.703C99.6863 106.732 99.6839 106.776 99.6792 106.835C99.6745 106.893 99.6661 106.942 99.6567 106.981C99.3388 106.962 98.9985 106.945 98.6356 106.93C98.2727 106.915 97.9525 106.908 97.6738 106.908C97.3857 106.908 97.0655 106.915 96.7121 106.93C96.3587 106.945 96.0243 106.962 95.7053 106.981C95.6851 106.942 95.6733 106.894 95.6685 106.835C95.6638 106.776 95.6614 106.732 95.6614 106.703C95.6614 106.634 95.6733 106.578 95.6982 106.534C95.7231 106.489 95.7895 106.458 95.8998 106.438C96.2674 106.389 96.4986 106.324 96.5935 106.24C96.6884 106.157 96.7346 106.017 96.7346 105.823V98.1146H95.423C95.1443 98.1146 94.9084 98.1414 94.7151 98.1951C94.5218 98.2487 94.3522 98.3315 94.2087 98.4445C94.064 98.5565 93.9347 98.7033 93.8209 98.884C93.707 99.0647 93.5896 99.2827 93.471 99.5357C93.4307 99.6231 93.3572 99.6674 93.2469 99.6674C93.1876 99.6674 93.1177 99.6558 93.0382 99.6313C92.9587 99.6068 92.8995 99.5847 92.8591 99.5648C92.9291 99.3305 92.9884 99.123 93.0382 98.9423C93.088 98.7616 93.1271 98.5833 93.158 98.4072C93.1971 98.1823 93.2268 97.9817 93.2469 97.8069C93.2671 97.6309 93.292 97.5038 93.3216 97.4257C93.3608 97.3382 93.4414 97.2939 93.56 97.2939C93.6691 97.2939 93.8849 97.3091 94.2087 97.3382C94.5312 97.3674 94.9214 97.3825 95.3792 97.3825H99.9709C100.418 97.3825 100.803 97.3674 101.126 97.3382C101.449 97.3091 101.67 97.2939 101.789 97.2939C101.898 97.2939 101.977 97.3382 102.027 97.4257C102.057 97.5038 102.079 97.6309 102.095 97.8069C102.11 97.9829 102.142 98.1834 102.192 98.4072C102.222 98.5833 102.26 98.7616 102.304 98.9423C102.349 99.123 102.41 99.3305 102.49 99.5648C102.44 99.5847 102.378 99.6068 102.304 99.6313C102.229 99.6558 102.162 99.6674 102.102 99.6674C101.993 99.6674 101.913 99.6231 101.864 99.5357C101.744 99.2816 101.628 99.0647 101.514 98.884C101.4 98.7033 101.271 98.5565 101.126 98.4445C100.981 98.3326 100.813 98.2487 100.62 98.1951C100.426 98.1414 100.195 98.1146 99.9259 98.1146H98.6119Z" fill="#FAFAFA"/>
<path d="M109.613 99.756C109.525 99.7851 109.43 99.8003 109.33 99.8003C109.191 99.8003 109.092 99.7735 109.032 99.7198C108.973 99.6662 108.933 99.6103 108.914 99.5508C108.685 98.9936 108.39 98.5937 108.027 98.3489C107.664 98.1053 107.179 97.9829 106.573 97.9829C106.096 97.9829 105.69 98.0983 105.357 98.3268C105.024 98.5564 104.858 98.9061 104.858 99.3748C104.858 99.7362 104.985 100.026 105.239 100.247C105.492 100.467 105.81 100.659 106.192 100.826C106.575 100.993 106.987 101.154 107.429 101.31C107.871 101.466 108.284 101.662 108.666 101.896C109.048 102.131 109.367 102.429 109.619 102.79C109.873 103.152 110 103.616 110 104.182C110 104.554 109.935 104.916 109.807 105.267C109.677 105.619 109.474 105.929 109.196 106.197C108.917 106.466 108.565 106.681 108.138 106.841C107.711 107.002 107.199 107.083 106.602 107.083C105.947 107.083 105.36 107.013 104.844 106.874C104.327 106.735 103.9 106.585 103.562 106.422C103.532 106.003 103.485 105.591 103.421 105.185C103.355 104.779 103.284 104.386 103.205 104.005C103.304 103.967 103.418 103.947 103.548 103.947C103.667 103.947 103.756 103.969 103.816 104.013C103.875 104.058 103.925 104.133 103.965 104.241C104.094 104.613 104.238 104.932 104.398 105.2C104.557 105.469 104.741 105.689 104.949 105.86C105.158 106.031 105.399 106.156 105.673 106.234C105.945 106.312 106.261 106.351 106.619 106.351C106.927 106.351 107.191 106.309 107.409 106.226C107.627 106.143 107.806 106.032 107.946 105.896C108.085 105.76 108.189 105.598 108.259 105.411C108.328 105.226 108.364 105.035 108.364 104.839C108.364 104.418 108.241 104.088 107.998 103.848C107.755 103.608 107.452 103.407 107.089 103.246C106.726 103.085 106.333 102.933 105.911 102.792C105.489 102.649 105.096 102.469 104.733 102.248C104.371 102.028 104.067 101.745 103.824 101.397C103.581 101.05 103.459 100.583 103.459 99.9961C103.459 99.6044 103.531 99.2396 103.674 98.9026C103.818 98.5657 104.03 98.272 104.308 98.0225C104.586 97.773 104.921 97.5749 105.315 97.428C105.707 97.2811 106.157 97.2076 106.664 97.2076C107.082 97.2076 107.501 97.2519 107.924 97.3394C108.346 97.4268 108.826 97.5737 109.362 97.7789C109.382 98.0715 109.414 98.4014 109.459 98.7686C109.504 99.1358 109.554 99.4622 109.613 99.756Z" fill="#FAFAFA"/>
<defs>
<clipPath id="clip0_107_4">
<rect width="92.2018" height="91.1757" fill="white" transform="translate(9.01709)"/>
</clipPath>
</defs>
</svg>
